<svg id="Layer_1" data-name="Layer 1" xmlns="http://www.w3.org/2000/svg" viewBox="0 0 32 32"><defs><style>.cls-1{fill:#070d19;}.cls-2{fill:#7877f0;}</style></defs><rect class="cls-1" width="32" height="32"/><path class="cls-2" d="M31.14,15.76a3.59,3.59,0,0,0-3.59-3.59,3.22,3.22,0,0,0-2.28.85,15.78,15.78,0,0,0-8-2.37l1.61-5,4.26.94a3,3,0,0,0,6-.19,3,3,0,0,0-3-3A3.26,3.26,0,0,0,23.38,5l-5-1.23a.83.83,0,0,0-.95.56l-2,6.15a18.33,18.33,0,0,0-8.7,2.37,3.9,3.9,0,0,0-2.28-.76,3.6,3.6,0,0,0-3.59,3.6,3.77,3.77,0,0,0,1.61,3c0,.28-.1.56-.1.85,0,2.55,1.42,4.83,4.07,6.53a17.1,17.1,0,0,0,9.47,2.55,17.87,17.87,0,0,0,9.46-2.55c2.65-1.7,4.07-4.07,4.07-6.53a1.75,1.75,0,0,0-.1-.76A3.28,3.28,0,0,0,31.14,15.76ZM26.13,5a1.46,1.46,0,0,1,1.42,1.41,1.42,1.42,0,0,1-2.84,0A1.45,1.45,0,0,1,26.13,5ZM9.47,18a2.08,2.08,0,1,1,2.08,2.09A2.1,2.1,0,0,1,9.47,18ZM21,24.09c-1.05,1-2.65,1.61-5,1.61h0c-2.27,0-3.88-.47-5-1.61A.87.87,0,0,1,11,23a.86.86,0,0,1,1.14,0c.76.75,2,1,3.79,1h0a5.67,5.67,0,0,0,3.78-1,.86.86,0,0,1,1.14,0A.72.72,0,0,1,21,24.09Zm-.48-4A2.09,2.09,0,1,1,22.62,18,2.11,2.11,0,0,1,20.54,20.12Z"/></svg>